<svg width="30" height="24" viewBox="0 0 30 24" fill="none" xmlns="http://www.w3.org/2000/svg">
<g opacity="0.5" clip-path="url(#clip0_95_179)">
<path d="M-0.000154495 2.92185C1.08157 3.4015 2.2439 3.72567 3.46388 3.87151C2.21852 3.1251 1.26231 1.94313 0.812056 0.534822C1.99592 1.23735 3.29117 1.73233 4.64183 1.99836C5.74205 0.826267 7.30939 0.09375 9.04417 0.09375C12.375 0.09375 15.0755 2.79415 15.0755 6.12476C15.0755 6.59752 15.0221 7.05777 14.9193 7.4993C19.9318 7.2477 24.3758 4.84667 27.3505 1.19775C27.8696 2.08851 28.167 3.12464 28.167 4.22979C28.167 6.32227 27.1022 8.1682 25.4839 9.24981C26.4417 9.21981 27.3784 8.96113 28.2158 8.49536C28.2161 8.52062 28.2161 8.54589 28.2161 8.57126C28.2161 11.4934 26.1372 13.9311 23.3783 14.4851C24.2664 14.7267 25.198 14.762 26.1019 14.5885C25.3344 16.9846 23.107 18.7282 20.4679 18.777C22.5321 20.3945 25.1327 21.3588 27.9582 21.3588C28.4451 21.3588 28.9251 21.3302 29.397 21.2745C26.7279 22.9857 23.5577 23.9842 20.1518 23.9842C9.05818 23.9842 2.99192 14.794 2.99192 6.8242C2.99192 6.56261 2.99766 6.30252 3.00937 6.04391C1.82863 5.19035 0.809511 4.13312 -0.000154495 2.92185Z" fill="white"/>
</g>
<defs>
<clipPath id="clip0_95_179">
<rect width="29.3971" height="24" fill="white"/>
</clipPath>
</defs>
</svg>
